<svg width="16" height="28" xmlns="http://www.w3.org/2000/svg">
 <g>
  <title>background</title>
  <rect x="-1" y="-1" width="18" height="30" id="canvas_background" fill="none"/>
 </g>

 <g>
  <title stroke="#999999" fill="#999999">Layer 1</title>
  <path class="st1" d="m15.140075,0.82727l-0.1386,4.74772c0,0 -0.60652,-0.02476 -2.73554,0c-2.09188,0.02476 -2.11664,1.58439 -2.11664,1.65865l-0.02476,3.94859l4.87694,0.08665l-0.70555,5.05023l-4.14663,0l-0.1114,10.64509l-5.02547,0l-0.13616,-10.62033l-4.40657,-0.02476l0.12378,-5.13687l4.3323,0c0,0 0,-3.71259 0,-3.7134c0,-1.45277 0.34726,-3.02929 1.17518,-4.24103c0.73033,-1.06892 1.83452,-1.77425 3.06584,-2.13522c0,-0.00001 2.5823,-0.81032 5.97328,-0.26532z" id="svg_1" fill="#999999" stroke="#999999" stroke-width="0.7" stroke-linecap="round" stroke-linejoin="round" stroke-miterlimit="10"/>
 </g>
</svg>