<svg width="323" height="322" xmlns="http://www.w3.org/2000/svg">
 <g>
  <title>background</title>
  <rect x="-1" y="-1" width="325" height="324" id="canvas_background" fill="none"/>
 </g>

 <g>
  <title>Layer 1</title>
  <path d="m268.137934,1.638411c-0.41687,-0.004 -0.84683,0.0154 -1.26316,0.0263c-31.73689,0.82773 -128.14077,0.35511 -180.42105,0.10528l0,92.02618l-62.44737,0l0,-79.76303c-12.64538,10.40867 -22.10526,25.78309 -22.10526,39.81573c0,6.84337 -0.02888,32.32866 -0.05262,49.68412l96.13158,0l-9.39474,10.81577l-86.73684,0c-0.08057,56.17433 -0.21054,128.19048 -0.21054,153.34187c0,25.89034 27.77966,53.9473 53.65789,53.9473c35.3365,0 159.06701,-0.1579 210.78948,-0.1579c28.01881,0 55.55263,-25.92107 55.55263,-54.6578c0,-43.53958 -0.0609,-102.4696 -0.10528,-152.47345l-86.78947,0l-9.39474,-10.81578l96.18421,0c-0.0143,-17.18617 -0.0526,-39.11496 -0.0526,-49.71046c0,-25.2825 -27.08042,-52.01801 -53.34211,-52.18413l-0.00001,0zm-23.18422,22.18419c13.34934,0.008 25.91847,0 40.3158,0c4.79395,0 10.23683,5.30902 10.23683,10.10525l0,41.21045c0,4.80794 -5.43114,10.10525 -10.23683,10.10525c-13.91233,0 -25.51881,-0.005 -40.3421,0c-4.85913,0.002 -10.5,-5.24387 -10.5,-10.10525c0,-12.44786 0.007,-27.69167 0,-41.21045c-0.002,-4.86177 5.66682,-10.10779 10.5263,-10.10525zm-83.28946,56.57885c45.3411,0 82.10526,36.52354 82.10526,81.57883c0,45.05529 -36.76416,81.57883 -82.10526,81.57883c-45.34111,0 -82.07895,-36.52354 -82.07895,-81.57883c0,-45.05529 36.73784,-81.57883 82.07895,-81.57883zm0.0527,9.10526c-39.68295,0 -71.84211,32.20014 -71.84211,71.92094c0,39.72079 32.15916,71.92095 71.84211,71.92095c39.68295,0 71.86842,-32.20016 71.86842,-71.92095c0,-39.7208 -32.18547,-71.92094 -71.86842,-71.92094zm0.68421,17.52628c29.58938,0 53.55263,24.00197 53.55263,53.60519c0,29.60322 -23.96325,53.60518 -53.55263,53.60518c-29.58939,0 -53.57896,-24.00196 -53.57896,-53.60518c0,-29.60322 23.98957,-53.60519 53.57896,-53.60519z" id="rect2989-1" fill="#cfcfcf"/>
 </g>
</svg>