<svg width="30.000000000000004" height="30.000000000000004" xmlns="http://www.w3.org/2000/svg">

 <g>
  <title>background</title>
  <rect fill="none" id="canvas_background" height="402" width="582" y="-1" x="-1"/>
 </g>
 <g>
  <title fill="#999999">Layer 1</title>
  <path fill="#999999" id="svg_1" fill-rule="evenodd" d="m30,28.598l-1.401,1.402l-8.852,-8.853c-2.092,1.773 -4.794,2.847 -7.751,2.847c-6.628,0 -12,-5.372 -12,-11.999s5.372,-12 12,-12c6.627,0 12,5.373 12,12c0,2.957 -1.074,5.659 -2.848,7.751l8.852,8.852zm-18.004,-26.603c-5.522,0 -10,4.478 -10,10s4.478,10 10,10s10,-4.478 10,-10s-4.477,-10 -10,-10z" clip-rule="evenodd"/>
 </g>
</svg>