<svg width="32" height="27" xmlns="http://www.w3.org/2000/svg">
 <g>
  <title>background</title>
  <rect x="-1" y="-1" width="34" height="29" id="canvas_background" fill="none"/>
 </g>

 <g>
  <title>Layer 1</title>
  <path d="m31.993,3.180448c-1.177,0.523 -2.441,0.876 -3.77,1.033c1.355,-0.812 2.396,-2.098 2.887,-3.63c-1.269,0.751 -2.673,1.299 -4.168,1.592c-1.198,-1.275 -2.904,-2.072 -4.793,-2.072c-3.625,0 -6.562,2.938 -6.562,6.563c0,0.514 0.057,1.016 0.169,1.496c-5.455,-0.274 -10.291,-2.887 -13.529,-6.858c-0.564,0.97 -0.888,2.097 -0.888,3.3c0,2.278 1.159,4.286 2.919,5.464c-1.075,-0.035 -2.087,-0.329 -2.972,-0.821c-0.001,0.027 -0.001,0.056 -0.001,0.082c0,3.181 2.262,5.834 5.265,6.437c-0.55,0.149 -1.13,0.23 -1.729,0.23c-0.424,0 -0.834,-0.041 -1.234,-0.117c0.834,2.606 3.259,4.504 6.13,4.558c-2.245,1.76 -5.075,2.811 -8.15,2.811c-0.53,0 -1.053,-0.031 -1.566,-0.092c2.904,1.86 6.354,2.947 10.061,2.947c12.072,0 18.675,-10.001 18.675,-18.675c0,-0.284 -0.008,-0.568 -0.02,-0.85c1.283,-0.925 2.395,-2.08 3.276,-3.398z" fill="#cfcfcf" id="svg_1"/>
 </g>
</svg>