<svg width="64" height="45" xmlns="http://www.w3.org/2000/svg">

 <g>
  <title>background</title>
  <rect fill="none" id="canvas_background" height="47" width="66" y="-1" x="-1"/>
 </g>
 <g>
  <title>Layer 1</title>
  <path fill="#cfcfcf" id="svg_3" d="m63.361,9.822261c0,0 -0.625,-4.41 -2.544,-6.352c-2.434,-2.549 -5.162,-2.562 -6.413,-2.711c-8.956,-0.647 -22.39,-0.647 -22.39,-0.647l-0.028,0c0,0 -13.434,0 -22.39,0.647c-1.251,0.149 -3.978,0.162 -6.413,2.711c-1.919,1.942 -2.543,6.352 -2.543,6.352s-0.64,5.179 -0.64,10.358l0,4.855c0,5.179 0.64,10.358 0.64,10.358s0.624,4.41 2.543,6.352c2.435,2.549 5.632,2.469 7.057,2.736c5.12,0.492 21.76,0.644 21.76,0.644s13.448,-0.02 22.404,-0.668c1.251,-0.149 3.979,-0.162 6.413,-2.711c1.919,-1.942 2.544,-6.352 2.544,-6.352s0.639,-5.179 0.639,-10.358l0,-4.855c0,-5.18 -0.639,-10.359 -0.639,-10.359zm-37.968,21.097l-0.003,-17.982l17.293,9.022l-17.29,8.96z" class="st1"/>
 </g>
</svg>